<svg xmlns="http://www.w3.org/2000/svg" viewBox="0 0 44.86 66.91"><defs><style>.cls-1,.cls-4{fill:#5a5a5a;}.cls-1,.cls-2,.cls-3{fill-rule:evenodd;}.cls-2{fill:#3c3c3c;}.cls-3{fill:#888;}.cls-5{fill:#1a1a1a;}</style></defs><title>资源 1</title><g id="图层_2" data-name="图层 2"><g id="图层_1-2" data-name="图层 1"><g id="形状_3" data-name="形状 3"><polygon class="cls-1" points="6.18 7.97 0 9.32 9.31 23.61 6.18 7.97"/></g><g id="形状_4" data-name="形状 4"><polygon class="cls-2" points="8.91 4.59 6.18 7.97 9.31 23.61 8.91 4.59"/></g><g id="形状_2" data-name="形状 2"><polygon class="cls-3" points="0 9.32 6.18 7.97 8.91 4.59 0 9.32"/></g><g id="椭圆_1" data-name="椭圆 1"><path class="cls-1" d="M13.66,15.43a2.07,2.07,0,1,0,2.05,2.07A2.06,2.06,0,0,0,13.66,15.43Z"/></g><g id="矩形_1" data-name="矩形 1"><rect class="cls-4" x="11.92" y="23.61" width="8.85" height="9.44"/></g><g id="形状_6" data-name="形状 6"><polygon class="cls-2" points="20.6 0 26.48 5.83 30.6 2.99 20.6 0"/></g><g id="形状_7" data-name="形状 7"><polygon class="cls-3" points="26.44 5.76 21.46 21.86 30.6 2.99 26.44 5.76"/></g><g id="形状_5" data-name="形状 5"><polygon class="cls-1" points="20.6 0 21.46 21.86 26.44 5.76 20.6 0"/></g><g id="形状_8" data-name="形状 8"><polygon class="cls-2" points="0.17 63.29 6.32 65.44 12.16 34.8 0.17 63.29"/></g><g id="形状_9" data-name="形状 9"><polygon class="cls-1" points="12.16 34.8 6.32 65.44 14.6 64.78 12.16 34.8"/></g><g id="形状_10" data-name="形状 10"><polygon class="cls-1" points="22.19 35.27 22.55 56.74 31.04 57.18 22.19 35.27"/></g><g id="形状_11" data-name="形状 11"><polygon class="cls-2" points="22.19 35.27 31.04 57.18 35.94 54.53 22.19 35.27"/></g><path d="M22.44,64.94l.63-.77a1.9,1.9,0,0,0,1.14.47c.41,0,.61-.15.61-.4s-.26-.36-.66-.54l-.6-.25a1.36,1.36,0,0,1-.95-1.28,1.54,1.54,0,0,1,1.7-1.42,2.13,2.13,0,0,1,1.52.62l-.56.7a1.55,1.55,0,0,0-1-.36c-.35,0-.56.14-.56.4s.29.35.71.52l.58.23A1.29,1.29,0,0,1,26,64.15a1.58,1.58,0,0,1-1.78,1.47A2.58,2.58,0,0,1,22.44,64.94Z"/><path d="M26.56,66.84l.2-.85A1.5,1.5,0,0,0,27,66a.58.58,0,0,0,.6-.43l0-.18-1.37-3.48H27.4l.48,1.49c.1.32.18.66.27,1h0l.24-1,.41-1.49h1.06l-1.22,3.6c-.35.91-.74,1.37-1.58,1.37A1.58,1.58,0,0,1,26.56,66.84Z"/><path d="M30.42,61.94h.91l.08.45h0a1.59,1.59,0,0,1,1.14-.54c.77,0,1.11.56,1.11,1.46v2.22H32.57V63.45c0-.5-.13-.64-.42-.64a.84.84,0,0,0-.62.32v2.4H30.42Z"/><path d="M34.34,63.74a1.81,1.81,0,0,1,1.87-1.89,1.52,1.52,0,0,1,1,.39l-.52.71a.69.69,0,0,0-.46-.19c-.49,0-.8.38-.8,1s.32,1,.76,1a1,1,0,0,0,.62-.26l.43.74a1.79,1.79,0,0,1-1.17.43A1.73,1.73,0,0,1,34.34,63.74Z"/><path d="M37.7,63.74a1.77,1.77,0,0,1,1.69-1.89c1,0,1.53.75,1.53,1.74a2.47,2.47,0,0,1,0,.47h-2.1a.82.82,0,0,0,.89.7,1.43,1.43,0,0,0,.75-.23l.37.68a2.34,2.34,0,0,1-1.28.41A1.75,1.75,0,0,1,37.7,63.74ZM40,63.33c0-.36-.16-.62-.57-.62a.65.65,0,0,0-.65.62Z"/><path d="M41.45,63.74c0-1.18.73-1.89,1.47-1.89a1.1,1.1,0,0,1,.86.37l0-.53v-1.2h1.12v5H44l-.08-.35h0a1.38,1.38,0,0,1-.94.44C42,65.62,41.45,64.9,41.45,63.74Zm2.29.65V63a.79.79,0,0,0-.55-.22c-.31,0-.59.3-.59,1s.22,1,.6,1A.57.57,0,0,0,43.74,64.39Z"/><polygon class="cls-5" points="17.9 21.77 14.79 21.77 11.92 23.61 20.77 23.61 17.9 21.77"/></g></g></svg>